<svg width="20" height="15" viewBox="0 0 20 15" fill="none" xmlns="http://www.w3.org/2000/svg">
<g clip-path="url(#clip0_13758_4378)">
<path d="M7.75496 10.0699C7.84765 9.93837 7.88738 9.85942 7.95359 9.79363C10.708 7.05675 13.4491 4.33303 16.2034 1.60931C16.9185 0.91193 17.8719 0.754033 18.6665 1.21457C19.7391 1.81984 19.9907 3.24091 19.2094 4.18829C19.1432 4.26724 19.077 4.33303 18.9975 4.41198C15.74 7.6357 12.4956 10.8594 9.23808 14.0963C8.62894 14.7016 7.91386 14.9121 7.09285 14.6358C6.81477 14.5437 6.53668 14.3595 6.32481 14.1489C4.66954 12.5305 3.04076 10.9121 1.39873 9.2673C0.816078 8.67519 0.630689 7.96465 0.922016 7.18833C1.21334 6.412 1.80924 5.97779 2.63025 5.89884C3.27912 5.84621 3.82204 6.09621 4.27228 6.55674C5.35813 7.64886 6.45723 8.72782 7.54308 9.80679C7.60929 9.87258 7.64902 9.93837 7.74171 10.0699H7.75496Z" fill="#52EFF3"/>
</g>
<defs>
<clipPath id="clip0_13758_4378">
<rect width="18.87" height="13.7897" fill="white" transform="translate(0.791016 0.953125)"/>
</clipPath>
</defs>
</svg>
