<svg width="28" height="28" viewBox="0 0 28 28" fill="none" xmlns="http://www.w3.org/2000/svg">
<path d="M26 15.25C26.6904 15.25 27.25 14.6904 27.25 14C27.25 13.3096 26.6904 12.75 26 12.75V15.25ZM1.11612 13.1161C0.627961 13.6043 0.627961 14.3957 1.11612 14.8839L9.07107 22.8388C9.55922 23.327 10.3507 23.327 10.8388 22.8388C11.327 22.3507 11.327 21.5592 10.8388 21.0711L3.76777 14L10.8388 6.92893C11.327 6.44078 11.327 5.64932 10.8388 5.16117C10.3507 4.67301 9.55922 4.67301 9.07107 5.16117L1.11612 13.1161ZM26 12.75L2 12.75V15.25L26 15.25V12.75Z" fill="#2E2E2E"/>
</svg>
