<svg width="65" height="24" viewBox="0 0 65 24" fill="none" xmlns="http://www.w3.org/2000/svg">
<path d="M0.277344 1.35547H4.91797V7.80078C5.25391 6.99609 5.61328 6.37109 5.99609 5.92578C6.37891 5.48047 6.84766 5.15625 7.40234 4.95312C7.96484 4.74219 8.57812 4.63672 9.24219 4.63672C10.2188 4.63672 11.0039 4.8125 11.5977 5.16406C12.1992 5.50781 12.6875 6.00781 13.0625 6.66406C13.4375 7.3125 13.7188 8.10547 13.9062 9.04297C14.0938 9.98047 14.1875 10.9609 14.1875 11.9844C14.1875 13.3203 14.043 14.5547 13.7539 15.6875C13.4648 16.8203 13.0352 17.7773 12.4648 18.5586C12.043 19.1289 11.5312 19.5781 10.9297 19.9062C10.3281 20.2266 9.53516 20.3867 8.55078 20.3867C7.78516 20.3867 7.16406 20.2734 6.6875 20.0469C6.21094 19.8203 5.78906 19.4844 5.42188 19.0391C5.14844 18.6953 4.86719 18.2109 4.57812 17.5859V20H0.277344V1.35547ZM7.17969 16.1328C7.83594 16.1328 8.38281 15.8516 8.82031 15.2891C9.26562 14.7266 9.48828 13.8125 9.48828 12.5469C9.48828 11.2812 9.26172 10.3594 8.80859 9.78125C8.46484 9.35156 7.94531 9.13672 7.25 9.13672C6.46875 9.13672 5.83984 9.41016 5.36328 9.95703C4.89453 10.5039 4.66016 11.3945 4.66016 12.6289C4.66016 13.8945 4.94141 14.8359 5.50391 15.4531C5.91797 15.9062 6.47656 16.1328 7.17969 16.1328ZM19.0508 4.50781C18.4102 4.50781 17.8516 4.44141 17.375 4.30859C16.8984 4.16797 16.5625 3.96875 16.3672 3.71094C16.1797 3.44531 16.0859 3.12891 16.0859 2.76172C16.0859 2.41797 16.1758 2.10938 16.3555 1.83594C16.5352 1.55469 16.8008 1.34375 17.1523 1.20312C17.5039 1.0625 18.0273 0.992188 18.7227 0.992188C19.7852 0.992188 20.5156 1.10156 20.9141 1.32031C21.4609 1.61719 21.7344 2.08984 21.7344 2.73828C21.7344 3.26172 21.5547 3.66406 21.1953 3.94531C20.7266 4.32031 20.0117 4.50781 19.0508 4.50781ZM21.3125 20H16.4609V5.10547C17.2266 5.41016 18.1016 5.5625 19.0859 5.5625C19.5547 5.5625 19.9883 5.52344 20.3867 5.44531C20.793 5.35938 21.1016 5.24609 21.3125 5.10547V20ZM35.1289 16.0859V20H23.7734V16.2734L29.3516 9.33594H23.9375V4.97656H35.2227V8.66797L29.5273 16.0859H35.1289ZM48.4648 16.0859V20H37.1094V16.2734L42.6875 9.33594H37.2734V4.97656H48.5586V8.66797L42.8633 16.0859H48.4648ZM49.918 4.97656H54.8398L56.9727 15.0547L59.2461 4.97656H64.0273L57.8633 23.5508H53.1172L54.6172 19.0273L49.918 4.97656Z" fill="white"/>
</svg>
