<svg width="26" height="28" viewBox="0 0 26 28" fill="none" xmlns="http://www.w3.org/2000/svg">
<path d="M24.1918 12.584C23.3418 12.584 22.7751 13.1507 22.7751 14.0007C22.7751 19.5257 18.3834 23.9173 12.8584 23.9173C12.5751 23.9173 12.1501 23.9173 11.8668 23.9173C11.5834 23.9173 11.4418 23.9173 11.1584 23.7757C10.8751 23.7757 10.7334 23.634 10.4501 23.634C10.3084 23.634 10.1668 23.4923 10.0251 23.4923C9.03345 23.209 8.04178 22.6423 7.19178 22.0757C7.05011 21.934 6.90845 21.934 6.90845 21.7923C6.76678 21.6507 6.62511 21.509 6.48345 21.509C6.20011 21.3673 5.91678 21.084 5.77511 20.9423C5.63345 20.8007 5.63345 20.8007 5.49178 20.659L8.04178 20.234C8.75011 20.0923 9.31678 19.384 9.17511 18.534C9.03345 17.8257 8.32511 17.259 7.47511 17.4007L2.80011 18.2507L1.66678 18.534C1.24178 18.534 0.958447 18.8173 0.816781 19.1007C0.675114 19.384 0.533447 19.809 0.533447 20.0923L1.66678 26.0423C1.80845 26.7507 2.37511 27.1757 3.08345 27.1757C3.22511 27.1757 3.22511 27.1757 3.36678 27.1757C4.07511 27.034 4.64178 26.3257 4.50011 25.4757L4.07511 23.0673C4.35845 23.3507 4.78345 23.634 5.06678 23.9173C5.06678 23.9173 5.06678 23.9173 5.20845 23.9173C5.35011 24.059 5.49178 24.2007 5.63345 24.2007C5.91678 24.484 6.20011 24.6257 6.62511 24.7673C6.90845 25.334 7.33345 25.4757 7.75845 25.759H7.90011C8.04178 25.9007 8.32511 25.9007 8.60845 26.0423C9.17511 26.184 9.74178 26.3257 10.1668 26.4673C10.4501 26.4673 10.7334 26.609 11.0168 26.609H11.1584C11.3001 26.609 11.5834 26.609 11.7251 26.609C12.0084 26.609 12.4334 26.609 12.7168 26.609C19.8001 26.609 25.4668 20.9423 25.4668 13.859C25.6084 13.1507 24.9001 12.584 24.1918 12.584Z" fill="#333333"/>
<path d="M1.66657 15.4167C2.51657 15.4167 3.08324 14.8501 3.08324 14.0001C3.08324 8.47508 7.4749 4.08341 12.9999 4.08341C13.2832 4.08341 13.7082 4.08341 13.9916 4.08341C14.2749 4.08341 14.4166 4.08341 14.6999 4.22508C14.9832 4.22508 15.1249 4.36674 15.4082 4.36674C15.5499 4.36674 15.6916 4.50841 15.8332 4.50841C16.8249 4.79174 17.8166 5.21674 18.6666 5.92508C18.8082 6.06674 18.9499 6.06674 19.0916 6.20841C19.2332 6.35008 19.3749 6.35008 19.5166 6.49174C19.6582 6.63341 19.7999 6.91674 20.0832 7.05841C20.2249 7.20008 20.2249 7.20008 20.3666 7.34174L17.8166 7.76674C17.1082 7.90841 16.5416 8.61674 16.6832 9.46674C16.8249 10.1751 17.3916 10.6001 18.0999 10.6001C18.2416 10.6001 18.2416 10.6001 18.3832 10.6001L24.3332 9.46674C25.0416 9.32508 25.6082 8.61674 25.4666 7.76674L24.3332 1.95841C24.1916 1.25008 23.4832 0.68341 22.6332 0.825076C21.9249 0.966743 21.3582 1.67508 21.4999 2.52508L21.9249 4.93341C21.6416 4.65008 21.2166 4.22508 20.9332 4.08341C20.9332 4.08341 20.9332 4.08341 20.7916 4.08341C20.6499 3.94174 20.5082 3.80008 20.3666 3.80008C20.0832 3.51674 19.7999 3.37508 19.3749 3.09174C18.9499 2.80841 18.5249 2.66674 18.0999 2.38341H17.9582C17.8166 2.24174 17.5332 2.24174 17.2499 2.10008C16.6832 1.95841 16.1166 1.81674 15.6916 1.67508C15.4082 1.67508 15.1249 1.53341 14.8416 1.53341H14.6999C14.5582 1.53341 14.2749 1.53341 14.1332 1.53341C13.8499 1.53341 13.4249 1.53341 13.1416 1.53341C6.05824 1.53341 0.391568 7.20008 0.391568 14.2834C0.249902 14.8501 0.816568 15.4167 1.66657 15.4167Z" fill="#333333"/>
</svg>
